<svg width="200" height="200" viewBox="0 0 200 200" xmlns="http://www.w3.org/2000/svg">
  <defs>
    <!-- Gradient for the scales -->
    <linearGradient id="scalesGradient" x1="0%" y1="0%" x2="100%" y2="100%">
      <stop offset="0%" style="stop-color:#3B82F6;stop-opacity:1" />
      <stop offset="100%" style="stop-color:#1E40AF;stop-opacity:1" />
    </linearGradient>
    
    <!-- Gradient for the AI elements -->
    <linearGradient id="aiGradient" x1="0%" y1="0%" x2="100%" y2="100%">
      <stop offset="0%" style="stop-color:#10B981;stop-opacity:1" />
      <stop offset="100%" style="stop-color:#059669;stop-opacity:1" />
    </linearGradient>
    
    <!-- Gradient for the background circle -->
    <radialGradient id="bgGradient" cx="50%" cy="50%" r="50%">
      <stop offset="0%" style="stop-color:#F8FAFC;stop-opacity:1" />
      <stop offset="100%" style="stop-color:#E2E8F0;stop-opacity:1" />
    </radialGradient>
    
    <!-- Glow effect -->
    <filter id="glow">
      <feGaussianBlur stdDeviation="3" result="coloredBlur"/>
      <feMerge> 
        <feMergeNode in="coloredBlur"/>
        <feMergeNode in="SourceGraphic"/>
      </feMerge>
    </filter>
  </defs>
  
  <!-- Background circle -->
  <circle cx="100" cy="100" r="95" fill="url(#bgGradient)" stroke="#CBD5E1" stroke-width="2"/>
  
  <!-- AI Neural Network Background Pattern -->
  <g opacity="0.1">
    <!-- Network nodes -->
    <circle cx="60" cy="60" r="2" fill="#10B981"/>
    <circle cx="140" cy="60" r="2" fill="#10B981"/>
    <circle cx="100" cy="80" r="2" fill="#10B981"/>
    <circle cx="80" cy="120" r="2" fill="#10B981"/>
    <circle cx="120" cy="120" r="2" fill="#10B981"/>
    <circle cx="100" cy="140" r="2" fill="#10B981"/>
    
    <!-- Network connections -->
    <line x1="60" y1="60" x2="100" y2="80" stroke="#10B981" stroke-width="1"/>
    <line x1="140" y1="60" x2="100" y2="80" stroke="#10B981" stroke-width="1"/>
    <line x1="100" y1="80" x2="80" y2="120" stroke="#10B981" stroke-width="1"/>
    <line x1="100" y1="80" x2="120" y2="120" stroke="#10B981" stroke-width="1"/>
    <line x1="80" y1="120" x2="100" y2="140" stroke="#10B981" stroke-width="1"/>
    <line x1="120" y1="120" x2="100" y2="140" stroke="#10B981" stroke-width="1"/>
  </g>
  
  <!-- Main Justice Scales -->
  <g transform="translate(100, 90)">
    <!-- Scale base/pillar -->
    <rect x="-3" y="20" width="6" height="40" fill="url(#scalesGradient)" rx="3"/>
    
    <!-- Scale beam -->
    <rect x="-35" y="15" width="70" height="4" fill="url(#scalesGradient)" rx="2"/>
    
    <!-- Left scale -->
    <g transform="translate(-25, 20)">
      <!-- Chain -->
      <line x1="0" y1="0" x2="0" y2="15" stroke="#64748B" stroke-width="2"/>
      <!-- Scale pan -->
      <ellipse cx="0" cy="20" rx="12" ry="3" fill="url(#scalesGradient)"/>
      <path d="M -12 20 Q -12 25 0 25 Q 12 25 12 20" fill="none" stroke="url(#scalesGradient)" stroke-width="2"/>
    </g>
    
    <!-- Right scale -->
    <g transform="translate(25, 20)">
      <!-- Chain -->
      <line x1="0" y1="0" x2="0" y2="15" stroke="#64748B" stroke-width="2"/>
      <!-- Scale pan -->
      <ellipse cx="0" cy="20" rx="12" ry="3" fill="url(#scalesGradient)"/>
      <path d="M -12 20 Q -12 25 0 25 Q 12 25 12 20" fill="none" stroke="url(#scalesGradient)" stroke-width="2"/>
    </g>
    
    <!-- Scale top ornament -->
    <circle cx="0" cy="12" r="4" fill="url(#scalesGradient)"/>
  </g>
  
  <!-- AI Elements -->
  <!-- Circuit pattern on left scale -->
  <g transform="translate(75, 110)" opacity="0.8">
    <rect x="0" y="0" width="8" height="2" fill="url(#aiGradient)" rx="1"/>
    <rect x="0" y="4" width="6" height="2" fill="url(#aiGradient)" rx="1"/>
    <rect x="2" y="8" width="4" height="2" fill="url(#aiGradient)" rx="1"/>
    <circle cx="8" cy="1" r="1" fill="url(#aiGradient)"/>
    <circle cx="6" cy="5" r="1" fill="url(#aiGradient)"/>
  </g>
  
  <!-- Digital elements on right scale -->
  <g transform="translate(117, 110)" opacity="0.8">
    <rect x="0" y="0" width="2" height="2" fill="url(#aiGradient)" rx="0.5"/>
    <rect x="4" y="0" width="2" height="2" fill="url(#aiGradient)" rx="0.5"/>
    <rect x="8" y="0" width="2" height="2" fill="url(#aiGradient)" rx="0.5"/>
    <rect x="0" y="4" width="2" height="2" fill="url(#aiGradient)" rx="0.5"/>
    <rect x="4" y="4" width="2" height="2" fill="url(#aiGradient)" rx="0.5"/>
    <rect x="2" y="8" width="2" height="2" fill="url(#aiGradient)" rx="0.5"/>
    <rect x="6" y="8" width="2" height="2" fill="url(#aiGradient)" rx="0.5"/>
  </g>
  
  <!-- AI Brain icon at the top -->
  <g transform="translate(100, 50)">
    <circle cx="0" cy="0" r="12" fill="none" stroke="url(#aiGradient)" stroke-width="2" opacity="0.7"/>
    <!-- Brain pattern -->
    <path d="M -8 -4 Q -4 -8 0 -4 Q 4 -8 8 -4" fill="none" stroke="url(#aiGradient)" stroke-width="1.5" opacity="0.7"/>
    <path d="M -6 0 Q 0 -2 6 0" fill="none" stroke="url(#aiGradient)" stroke-width="1.5" opacity="0.7"/>
    <path d="M -8 4 Q -4 2 0 4 Q 4 2 8 4" fill="none" stroke="url(#aiGradient)" stroke-width="1.5" opacity="0.7"/>
    <!-- Central processing dot -->
    <circle cx="0" cy="0" r="2" fill="url(#aiGradient)" opacity="0.8"/>
  </g>
  
  <!-- Subtle glow effect around the scales -->
  <g filter="url(#glow)" opacity="0.3">
    <circle cx="100" cy="100" r="50" fill="none" stroke="#3B82F6" stroke-width="1"/>
  </g>
  
  <!-- Digital corner accents -->
  <g opacity="0.4">
    <!-- Top left corner -->
    <path d="M 30 30 L 40 30 L 40 35 M 30 30 L 30 40 L 35 40" stroke="url(#aiGradient)" stroke-width="2" fill="none"/>
    <!-- Top right corner -->
    <path d="M 170 30 L 160 30 L 160 35 M 170 30 L 170 40 L 165 40" stroke="url(#aiGradient)" stroke-width="2" fill="none"/>
    <!-- Bottom left corner -->
    <path d="M 30 170 L 40 170 L 40 165 M 30 170 L 30 160 L 35 160" stroke="url(#aiGradient)" stroke-width="2" fill="none"/>
    <!-- Bottom right corner -->
    <path d="M 170 170 L 160 170 L 160 165 M 170 170 L 170 160 L 165 160" stroke="url(#aiGradient)" stroke-width="2" fill="none"/>
  </g>
</svg>